{
    "asset" : {
        "generator" : "Khronos glTF Blender I/O v1.0.5",
        "version" : "2.0"
    },
    "scene" : 0,
    "scenes" : [
        {
            "extras" : {
                "glTF2ExportSettings" : {
                    "export_all_influences" : 1,
                    "export_animations" : 1,
                    "export_apply" : 1,
                    "export_cameras" : 0,
                    "export_current_frame" : 1,
                    "export_draco_mesh_compression_enable" : 0,
                    "export_extras" : 1,
                    "export_format" : "GLTF_EMBEDDED",
                    "export_image_format" : "NAME",
                    "export_morph_tangent" : 1,
                    "export_selected" : 0,
                    "export_skins" : 1,
                    "export_tangents" : 1
                }
            },
            "name" : "Scene",
            "nodes" : [
                0,
                1
            ]
        }
    ],
    "nodes" : [
        {
            "mesh" : 0,
            "name" : "Helix"
        },
        {
            "mesh" : 1,
            "name" : "Helix2",
            "rotation" : [
                0,
                1,
                0,
                -1.6292068494294654e-07
            ]
        }
    ],
    "materials" : [
        {
            "doubleSided" : true,
            "name" : "Material.001",
            "pbrMetallicRoughness" : {}
        },
        {
            "doubleSided" : true,
            "name" : "Material.000",
            "pbrMetallicRoughness" : {}
        }
    ],
    "meshes" : [
        {
            "name" : "Helix",
            "primitives" : [
                {
                    "attributes" : {
                        "POSITION" : 0,
                        "NORMAL" : 1
                    },
                    "indices" : 2,
                    "material" : 0
                }
            ]
        },
        {
            "name" : "Helix.001",
            "primitives" : [
                {
                    "attributes" : {
                        "POSITION" : 3,
                        "NORMAL" : 4
                    },
                    "indices" : 2,
                    "material" : 1
                }
            ]
        }
    ],
    "accessors" : [
        {
            "bufferView" : 0,
            "componentType" : 5126,
            "count" : 29000,
            "max" : [
                0.27998366951942444,
                5.015939235687256,
                0.2799624502658844
            ],
            "min" : [
                -0.2799864709377289,
                -0.01593683287501335,
                -0.2799976170063019
            ],
            "type" : "VEC3"
        },
        {
            "bufferView" : 1,
            "componentType" : 5126,
            "count" : 29000,
            "type" : "VEC3"
        },
        {
            "bufferView" : 2,
            "componentType" : 5123,
            "count" : 173652,
            "type" : "SCALAR"
        },
        {
            "bufferView" : 3,
            "componentType" : 5126,
            "count" : 29000,
            "max" : [
                0.27998366951942444,
                5.015939235687256,
                0.2799624502658844
            ],
            "min" : [
                -0.2799864709377289,
                -0.01593683287501335,
                -0.2799976170063019
            ],
            "type" : "VEC3"
        },
        {
            "bufferView" : 4,
            "componentType" : 5126,
            "count" : 29000,
            "type" : "VEC3"
        }
    ],
    "bufferViews" : [
        {
            "buffer" : 0,
            "byteLength" : 348000,
            "byteOffset" : 0
        },
        {
            "buffer" : 0,
            "byteLength" : 348000,
            "byteOffset" : 348000
        },
        {
            "buffer" : 0,
            "byteLength" : 347304,
            "byteOffset" : 696000
        },
        {
            "buffer" : 0,
            "byteLength" : 348000,
            "byteOffset" : 1043304
        },
        {
            "buffer" : 0,
            "byteLength" : 348000,
            "byteOffset" : 1391304
        }
    ],
    "buffers" : [
        {
            "byteLength" : 1739304,
            "uri" : "data:application/octet-stream;base64,"
        }
    ]
}
