{
    "asset" : {
        "generator" : "Khronos glTF Blender I/O v1.0.5",
        "version" : "2.0"
    },
    "scene" : 0,
    "scenes" : [
        {
            "name" : "Scene",
            "nodes" : [
                0
            ]
        }
    ],
    "nodes" : [
        {
            "mesh" : 0,
            "name" : "NURBS\u30d1\u30b9"
        }
    ],
    "meshes" : [
        {
            "name" : "NURBS\u30d1\u30b9",
            "primitives" : [
                {
                    "attributes" : {
                        "POSITION" : 0,
                        "NORMAL" : 1
                    },
                    "indices" : 2
                }
            ]
        }
    ],
    "accessors" : [
        {
            "bufferView" : 0,
            "componentType" : 5126,
            "count" : 7821,
            "max" : [
                0.3637336194515228,
                4.575921058654785,
                0.7965782284736633
            ],
            "min" : [
                -0.3637335002422333,
                0.956744909286499,
                -3.391939163208008
            ],
            "type" : "VEC3"
        },
        {
            "bufferView" : 1,
            "componentType" : 5126,
            "count" : 7821,
            "type" : "VEC3"
        },
        {
            "bufferView" : 2,
            "componentType" : 5123,
            "count" : 45198,
            "type" : "SCALAR"
        }
    ],
    "bufferViews" : [
        {
            "buffer" : 0,
            "byteLength" : 93852,
            "byteOffset" : 0
        },
        {
            "buffer" : 0,
            "byteLength" : 93852,
            "byteOffset" : 93852
        },
        {
            "buffer" : 0,
            "byteLength" : 90396,
            "byteOffset" : 187704
        }
    ],
    "buffers" : [
        {
            "byteLength" : 278100,
            "uri" : "data:application/octet-stream;base64,"
        }
    ]
}
