{
    "asset" : {
        "generator" : "Khronos glTF Blender I/O v1.0.5",
        "version" : "2.0"
    },
    "scene" : 0,
    "scenes" : [
        {
            "name" : "Scene",
            "nodes" : [
                0
            ]
        }
    ],
    "nodes" : [
        {
            "mesh" : 0,
            "name" : "Helix.003",
            "rotation" : [
                -0.07844042778015137,
                -0.001711576129309833,
                0.021747635677456856,
                0.9966800808906555
            ],
            "translation" : [
                -0.0006000000284984708,
                0.01590000092983246,
                0.09880000352859497
            ]
        }
    ],
    "meshes" : [
        {
            "name" : "Helix.003",
            "primitives" : [
                {
                    "attributes" : {
                        "POSITION" : 0,
                        "NORMAL" : 1
                    },
                    "indices" : 2
                }
            ]
        }
    ],
    "accessors" : [
        {
            "bufferView" : 0,
            "componentType" : 5126,
            "count" : 57024,
            "max" : [
                0.09011539816856384,
                1.0000224113464355,
                0.06158502772450447
            ],
            "min" : [
                -0.0009980399627238512,
                -0.00030009058536961675,
                -0.10099837183952332
            ],
            "type" : "VEC3"
        },
        {
            "bufferView" : 1,
            "componentType" : 5126,
            "count" : 57024,
            "type" : "VEC3"
        },
        {
            "bufferView" : 2,
            "componentType" : 5123,
            "count" : 341856,
            "type" : "SCALAR"
        }
    ],
    "bufferViews" : [
        {
            "buffer" : 0,
            "byteLength" : 684288,
            "byteOffset" : 0
        },
        {
            "buffer" : 0,
            "byteLength" : 684288,
            "byteOffset" : 684288
        },
        {
            "buffer" : 0,
            "byteLength" : 683712,
            "byteOffset" : 1368576
        }
    ],
    "buffers" : [
        {
            "byteLength" : 2052288,
            "uri" : "data:application/octet-stream;base64,"
        }
    ]
}
